<svg width="313" height="95" viewBox="0 0 313 95" fill="none" xmlns="http://www.w3.org/2000/svg">
<g clip-path="url(#clip0_2415_2)">
<rect width="313" height="95" fill="#5856D6"/>
<path fill-rule="evenodd" clip-rule="evenodd" d="M-16 42.5821L2.31465 38.1865C20.6293 33.791 57.2586 25 93.8879 25C130.517 25 167.146 33.791 203.776 49.1753C240.405 64.5596 277.034 86.5372 313.664 95.3283C350.293 104.119 386.922 99.7238 405.237 97.526L423.552 95.3283V134.888H405.237C386.922 134.888 350.293 134.888 313.664 134.888C277.034 134.888 240.405 134.888 203.776 134.888C167.146 134.888 130.517 134.888 93.8879 134.888C57.2586 134.888 20.6293 134.888 2.31465 134.888H-16V42.5821Z" fill="white" fill-opacity="0.1"/>
<path fill-rule="evenodd" clip-rule="evenodd" d="M614 135L587.004 112.896C560.008 89.5641 507.242 45.3561 453.25 31.8481C399.258 19.5681 346.492 39.2161 292.5 55.1801C238.508 71.1441 185.742 83.4241 131.75 89.5641C77.7576 96.932 24.9924 96.932 -2.00378 96.932H-29V135H-2.00378C24.9924 135 77.7576 135 131.75 135C185.742 135 238.508 135 292.5 135C346.492 135 399.258 135 453.25 135C507.242 135 560.008 135 587.004 135H614Z" fill="white" fill-opacity="0.1"/>
<path d="M17.1378 65H19.9055V60.7557H22.2322C25.2429 60.7557 26.9943 58.9595 26.9943 56.3452C26.9943 53.7436 25.2749 51.9091 22.3026 51.9091H17.1378V65ZM19.9055 58.5376V54.1719H21.772C23.37 54.1719 24.1435 55.0412 24.1435 56.3452C24.1435 57.6428 23.37 58.5376 21.7848 58.5376H19.9055ZM28.7935 54.1911H32.8013V65H35.5371V54.1911H39.5449V51.9091H28.7935V54.1911ZM42.7408 65.1662C43.5589 65.1662 44.2685 64.4822 44.2749 63.6321C44.2685 62.7947 43.5589 62.1108 42.7408 62.1108C41.897 62.1108 41.2003 62.7947 41.2067 63.6321C41.2003 64.4822 41.897 65.1662 42.7408 65.1662ZM55.753 65C59.7417 65 62.1578 62.5327 62.1578 58.4418C62.1578 54.3636 59.7417 51.9091 55.7914 51.9091H51.1124V65H55.753ZM53.8801 62.6286V54.2805H55.6444C58.0989 54.2805 59.3965 55.5334 59.3965 58.4418C59.3965 61.3629 58.0989 62.6286 55.638 62.6286H53.8801ZM64.657 65H67.38V55.1818H64.657V65ZM66.0249 53.9162C66.8366 53.9162 67.5014 53.2962 67.5014 52.5355C67.5014 51.7812 66.8366 51.1612 66.0249 51.1612C65.2195 51.1612 64.5547 51.7812 64.5547 52.5355C64.5547 53.2962 65.2195 53.9162 66.0249 53.9162ZM70.0613 65H72.7843V59.1065C72.7843 58.0199 73.4746 57.2976 74.3823 57.2976C75.2772 57.2976 75.878 57.9112 75.878 58.8764V65H78.5179V59.0043C78.5179 57.9879 79.0996 57.2976 80.0904 57.2976C80.9597 57.2976 81.6117 57.8409 81.6117 58.9339V65H84.3283V58.397C84.3283 56.2685 83.0627 55.054 81.2346 55.054C79.7963 55.054 78.6777 55.7891 78.275 56.9141H78.1728C77.8596 55.7763 76.856 55.054 75.5073 55.054C74.1841 55.054 73.1806 55.7571 72.7715 56.9141H72.6564V55.1818H70.0613V65ZM89.7789 65.1854C91.2299 65.1854 92.1696 64.5526 92.649 63.6385H92.7257V65H95.3081V58.3778C95.3081 56.0384 93.3265 55.054 91.1404 55.054C88.7882 55.054 87.2413 56.179 86.8642 57.9688L89.3826 58.1733C89.568 57.5213 90.1497 57.0419 91.1277 57.0419C92.0545 57.0419 92.5851 57.5085 92.5851 58.3139V58.3523C92.5851 58.9851 91.9139 59.0682 90.2072 59.2344C88.264 59.4134 86.519 60.0653 86.519 62.2578C86.519 64.201 87.9061 65.1854 89.7789 65.1854ZM90.5588 63.3061C89.7214 63.3061 89.1206 62.9162 89.1206 62.1683C89.1206 61.4013 89.7534 61.0241 90.7122 60.8899C91.3066 60.8068 92.2782 60.6662 92.6042 60.4489V61.4908C92.6042 62.5199 91.7541 63.3061 90.5588 63.3061ZM103.143 55.1818H101.296V52.8295H98.5726V55.1818H97.2303V57.2273H98.5726V62.3409C98.5598 64.2649 99.8702 65.2173 101.845 65.1342C102.548 65.1087 103.047 64.968 103.322 64.8786L102.894 62.8523C102.759 62.8778 102.472 62.9418 102.216 62.9418C101.673 62.9418 101.296 62.7372 101.296 61.983V57.2273H103.143V55.1818ZM108.216 65.1854C109.667 65.1854 110.607 64.5526 111.086 63.6385H111.163V65H113.746V58.3778C113.746 56.0384 111.764 55.054 109.578 55.054C107.226 55.054 105.679 56.179 105.302 57.9688L107.82 58.1733C108.006 57.5213 108.587 57.0419 109.565 57.0419C110.492 57.0419 111.023 57.5085 111.023 58.3139V58.3523C111.023 58.9851 110.351 59.0682 108.645 59.2344C106.702 59.4134 104.956 60.0653 104.956 62.2578C104.956 64.201 106.344 65.1854 108.216 65.1854ZM108.996 63.3061C108.159 63.3061 107.558 62.9162 107.558 62.1683C107.558 61.4013 108.191 61.0241 109.15 60.8899C109.744 60.8068 110.716 60.6662 111.042 60.4489V61.4908C111.042 62.5199 110.192 63.3061 108.996 63.3061ZM128.177 55.674H130.83C130.791 53.3409 128.874 51.7301 125.959 51.7301C123.089 51.7301 120.986 53.3153 120.999 55.6932C120.992 57.6236 122.354 58.7294 124.565 59.2599L125.991 59.6179C127.416 59.9631 128.209 60.3722 128.215 61.2543C128.209 62.2131 127.301 62.8651 125.895 62.8651C124.457 62.8651 123.421 62.2003 123.332 60.8899H120.653C120.724 63.7216 122.75 65.1854 125.927 65.1854C129.123 65.1854 131.002 63.6577 131.009 61.2607C131.002 59.081 129.359 57.924 127.084 57.4126L125.908 57.1314C124.77 56.8693 123.817 56.4474 123.837 55.5078C123.837 54.6641 124.585 54.044 125.94 54.044C127.263 54.044 128.075 54.6449 128.177 55.674ZM137.755 65.1918C140.734 65.1918 142.588 63.1527 142.588 60.1293C142.588 57.0866 140.734 55.054 137.755 55.054C134.776 55.054 132.923 57.0866 132.923 60.1293C132.923 63.1527 134.776 65.1918 137.755 65.1918ZM137.768 63.0824C136.394 63.0824 135.691 61.8232 135.691 60.1101C135.691 58.397 136.394 57.1314 137.768 57.1314C139.117 57.1314 139.82 58.397 139.82 60.1101C139.82 61.8232 139.117 63.0824 137.768 63.0824ZM144.858 65H147.581V59.4453C147.581 58.2372 148.463 57.4062 149.665 57.4062C150.042 57.4062 150.56 57.4702 150.816 57.5533V55.1371C150.573 55.0795 150.234 55.0412 149.959 55.0412C148.86 55.0412 147.958 55.6804 147.6 56.8949H147.498V55.1818H144.858V65ZM155.242 65.1854C156.693 65.1854 157.632 64.5526 158.112 63.6385H158.189V65H160.771V58.3778C160.771 56.0384 158.789 55.054 156.603 55.054C154.251 55.054 152.704 56.179 152.327 57.9688L154.846 58.1733C155.031 57.5213 155.613 57.0419 156.591 57.0419C157.517 57.0419 158.048 57.5085 158.048 58.3139V58.3523C158.048 58.9851 157.377 59.0682 155.67 59.2344C153.727 59.4134 151.982 60.0653 151.982 62.2578C151.982 64.201 153.369 65.1854 155.242 65.1854ZM156.022 63.3061C155.184 63.3061 154.583 62.9162 154.583 62.1683C154.583 61.4013 155.216 61.0241 156.175 60.8899C156.77 60.8068 157.741 60.6662 158.067 60.4489V61.4908C158.067 62.5199 157.217 63.3061 156.022 63.3061ZM173.342 51.9091V61.0369C173.336 62.2962 172.773 62.9609 171.751 62.9609C170.785 62.9609 170.159 62.3601 170.14 61.3182H167.385C167.372 63.9325 169.238 65.179 171.61 65.179C174.263 65.179 176.072 63.5746 176.078 61.0369V51.9091H173.342ZM181.615 65.1854C183.066 65.1854 184.006 64.5526 184.485 63.6385H184.562V65H187.144V58.3778C187.144 56.0384 185.162 55.054 182.976 55.054C180.624 55.054 179.077 56.179 178.7 57.9688L181.219 58.1733C181.404 57.5213 181.986 57.0419 182.964 57.0419C183.89 57.0419 184.421 57.5085 184.421 58.3139V58.3523C184.421 58.9851 183.75 59.0682 182.043 59.2344C180.1 59.4134 178.355 60.0653 178.355 62.2578C178.355 64.201 179.742 65.1854 181.615 65.1854ZM182.395 63.3061C181.557 63.3061 180.956 62.9162 180.956 62.1683C180.956 61.4013 181.589 61.0241 182.548 60.8899C183.143 60.8068 184.114 60.6662 184.44 60.4489V61.4908C184.44 62.5199 183.59 63.3061 182.395 63.3061ZM191.086 68.6818C193.112 68.6818 194.186 67.6463 194.742 66.0611L198.558 55.1946L195.676 55.1818L193.624 62.392H193.521L191.489 55.1818H188.625L192.147 65.2812L191.987 65.6967C191.629 66.6172 190.945 66.6619 189.987 66.3679L189.373 68.4006C189.763 68.5668 190.396 68.6818 191.086 68.6818ZM202.97 65.1854C204.421 65.1854 205.361 64.5526 205.84 63.6385H205.917V65H208.499V58.3778C208.499 56.0384 206.518 55.054 204.332 55.054C201.98 55.054 200.433 56.179 200.056 57.9688L202.574 58.1733C202.759 57.5213 203.341 57.0419 204.319 57.0419C205.246 57.0419 205.776 57.5085 205.776 58.3139V58.3523C205.776 58.9851 205.105 59.0682 203.399 59.2344C201.455 59.4134 199.71 60.0653 199.71 62.2578C199.71 64.201 201.097 65.1854 202.97 65.1854ZM203.75 63.3061C202.913 63.3061 202.312 62.9162 202.312 62.1683C202.312 61.4013 202.945 61.0241 203.904 60.8899C204.498 60.8068 205.47 60.6662 205.796 60.4489V61.4908C205.796 62.5199 204.945 63.3061 203.75 63.3061ZM216.334 55.1818H214.487V52.8295H211.764V55.1818H210.422V57.2273H211.764V62.3409C211.751 64.2649 213.062 65.2173 215.037 65.1342C215.74 65.1087 216.238 64.968 216.513 64.8786L216.085 62.8523C215.951 62.8778 215.663 62.9418 215.407 62.9418C214.864 62.9418 214.487 62.7372 214.487 61.983V57.2273H216.334V55.1818ZM222.977 65.1918C225.406 65.1918 227.042 64.0092 227.426 62.1875L224.907 62.0213C224.633 62.7692 223.93 63.1591 223.022 63.1591C221.66 63.1591 220.797 62.2578 220.797 60.794V60.7876H227.483V60.0398C227.483 56.7031 225.464 55.054 222.868 55.054C219.979 55.054 218.106 57.1058 218.106 60.1357C218.106 63.2486 219.954 65.1918 222.977 65.1918ZM220.797 59.1001C220.855 57.9815 221.705 57.0866 222.913 57.0866C224.096 57.0866 224.914 57.9304 224.92 59.1001H220.797Z" fill="white"/>
</g>
<defs>
<clipPath id="clip0_2415_2">
<rect width="313" height="95" fill="white"/>
</clipPath>
</defs>
</svg>
